<?xml version="1.0" standalone="no"?>
<!DOCTYPE svg PUBLIC "-//W3C//DTD SVG 20010904//EN"
 "http://www.w3.org/TR/2001/REC-SVG-20010904/DTD/svg10.dtd">
<svg version="1.0" xmlns="http://www.w3.org/2000/svg"
 width="80.000000pt" height="80.000000pt" viewBox="0 0 80.000000 80.000000"
 preserveAspectRatio="xMidYMid meet">

<g transform="translate(0.000000,80.000000) scale(0.100000,-0.100000)"
fill="#000000" stroke="none">
<path d="M434 741 c4 -5 0 -12 -6 -14 -7 -3 6 -6 29 -6 43 -1 72 -21 31 -21
-23 -1 -23 -1 -3 -16 20 -15 22 -44 3 -55 -15 -10 0 -59 17 -59 8 0 15 -4 15
-10 0 -6 5 -9 11 -8 6 2 14 -3 17 -11 3 -10 0 -12 -11 -8 -8 3 -18 3 -22 -1
-14 -15 -103 -30 -159 -26 -34 1 -50 1 -36 -2 80 -17 100 -25 100 -44 0 -10 4
-21 9 -24 4 -3 6 7 4 22 -4 26 -4 27 12 7 16 -20 16 -20 35 3 23 27 30 28 30
2 0 -13 -10 -25 -28 -33 -18 -8 -26 -18 -24 -30 3 -15 10 -12 37 20 28 32 34
35 40 21 8 -19 -31 -78 -52 -78 -7 0 -13 -4 -13 -10 0 -5 9 -10 20 -10 23 0
23 2 9 -38 -9 -28 -14 -31 -37 -26 -51 11 -129 54 -140 76 -11 23 -11 23 -11
-3 -1 -14 -11 -35 -24 -47 -25 -24 -118 -52 -168 -52 -41 0 -95 -54 -104 -103
-6 -31 -3 -45 20 -78 48 -73 72 -79 365 -79 246 0 257 1 300 22 24 13 53 35
63 50 19 26 19 26 -2 57 -33 45 -75 71 -142 87 -33 8 -70 19 -81 25 -18 10
-19 11 -2 23 18 13 31 71 41 174 6 64 11 72 36 47 13 -13 16 -13 21 0 3 10 -3
17 -19 21 -32 8 -41 39 -20 70 19 29 13 78 -14 108 -33 37 -167 89 -147 57z"/>
<path d="M365 721 c-86 -28 -119 -83 -81 -134 12 -16 17 -16 35 -5 12 7 19 19
16 25 -2 7 2 13 10 13 8 0 15 7 15 16 0 8 4 13 9 10 5 -3 29 2 53 11 44 16 44
17 26 35 -23 23 -24 23 -31 -2 -3 -11 -10 -20 -16 -20 -6 0 -11 9 -11 20 0 11
5 20 10 20 6 0 10 5 10 10 0 11 -14 11 -45 1z"/>
<path d="M271 484 c0 -11 3 -14 6 -6 3 7 2 16 -1 19 -3 4 -6 -2 -5 -13z"/>
<path d="M290 455 c0 -8 4 -15 9 -15 5 0 11 7 15 15 3 9 0 15 -9 15 -8 0 -15
-7 -15 -15z"/>
<path d="M455 310 c-3 -5 -1 -10 4 -10 6 0 11 5 11 10 0 6 -2 10 -4 10 -3 0
-8 -4 -11 -10z"/>
</g>
</svg>
